/* XPM */
static char *d411c4c4bdc146acf6135251f8305195qtrpfQhH3STScgcX[] = {
/* columns rows colors chars-per-pixel */
"60 60 256 2 ",
"   c #47704C",
".  c #DCC391",
"X  c #D560B2",
"o  c #BFB059",
"O  c #728624",
"+  c #B6BB47",
"@  c #C97B55",
"#  c #948A35",
"$  c #9F3328",
"%  c #C2CD47",
"&  c #839829",
"*  c #C9D247",
"=  c #728B22",
"-  c #9DA934",
";  c #7B9426",
":  c #BAC73A",
">  c #859427",
",  c #AFAB3B",
"<  c #A93922",
"1  c #6D891B",
"2  c #C1D03F",
"3  c #C37E45",
"4  c #778F1E",
"5  c #91A226",
"6  c #C58145",
"7  c #7E9B1D",
"8  c #637817",
"9  c #7D9D24",
"0  c #717E1D",
"q  c #C2CF3F",
"w  c #95A629",
"e  c #A7B82E",
"r  c #92832E",
"t  c #667F14",
"y  c #769A1A",
"u  c #658715",
"i  c #BCCC39",
"p  c #8F9A2B",
"a  c #B77941",
"s  c #657E15",
"d  c #B84525",
"f  c #A6BA28",
"g  c #BCCE36",
"h  c #6D8C14",
"j  c #677E17",
"k  c #719615",
"l  c #B87A30",
"z  c #B94323",
"x  c #ADC130",
"c  c #809A1C",
"v  c #B18F37",
"b  c #B6CA34",
"n  c #709116",
"m  c #637516",
"M  c #BED139",
"N  c #C3823F",
"B  c #AF9634",
"V  c #6E9214",
"C  c #AEA830",
"Z  c #9A722A",
"A  c #AC9131",
"S  c #5E7413",
"D  c #575A0E",
"F  c #89981E",
"G  c #759617",
"H  c #C34F28",
"J  c #B5CA32",
"K  c #B87441",
"L  c #9AA225",
"P  c #5E7A11",
"I  c #93A21F",
"U  c #AEBD2E",
"Y  c #98AF21",
"T  c #A3A328",
"R  c #759816",
"E  c #A78F2E",
"W  c #7A9E14",
"Q  c #66890F",
"!  c #A8C028",
"~  c #C64D28",
"^  c #5F7513",
"/  c #B34121",
"(  c #A26D34",
")  c #B2CA2B",
"_  c #5F7C12",
"`  c #A76535",
"'  c #C65129",
"]  c #577012",
"[  c #99B021",
"{  c #6F9711",
"}  c #B1AD2B",
"|  c #AB802F",
" . c #828C17",
".. c #788313",
"X. c #8D6D19",
"o. c #BE4828",
"O. c #A7BD26",
"+. c #65860F",
"@. c #85A818",
"#. c #4F6C0C",
"$. c #BED133",
"%. c #94951D",
"&. c #9A8524",
"*. c #6D960F",
"=. c #797417",
"-. c #765D17",
";. c #F4C272",
":. c #F1BB69",
">. c #F4BA5D",
",. c #F3B961",
"<. c #F4B758",
"1. c #F1B55F",
"2. c #F4B553",
"3. c #F1B35A",
"4. c #F4B34E",
"5. c #F3B251",
"6. c #F4B14A",
"7. c #F0B054",
"8. c #F2B04E",
"9. c #EEAE5C",
"0. c #F3AF48",
"q. c #F0AD4F",
"w. c #EFAC53",
"e. c #F0AB4A",
"r. c #ECA950",
"t. c #EFA947",
"y. c #EEA844",
"u. c #E9A756",
"i. c #EDA74B",
"p. c #EFA641",
"a. c #EDA547",
"s. c #EBA44E",
"d. c #EDA349",
"f. c #EDA442",
"g. c #EBA346",
"h. c #EDA142",
"j. c #EBA04B",
"k. c #EDA03D",
"l. c #EB9E41",
"z. c None",
"x. c #ED9D3B",
"c. c #E89B4B",
"v. c #EB9B41",
"b. c #EC9B3B",
"n. c #E99939",
"m. c #E9973F",
"M. c #EB9738",
"N. c #E4944B",
"B. c #E9943B",
"V. c #EA9335",
"C. c #E89135",
"Z. c #E49041",
"A. c #E88E33",
"S. c #E68B37",
"D. c #E78B2F",
"F. c #97B71C",
"G. c #E38837",
"H. c #E6882E",
"J. c #E5862F",
"K. c #E5842C",
"L. c #DC843A",
"P. c #96AD1E",
"I. c #E2822D",
"U. c #E37F29",
"Y. c #E37D26",
"T. c #E27B24",
"R. c #DA7C2D",
"E. c #D27D38",
"W. c #90A41B",
"Q. c #E27820",
"!. c #DC7927",
"~. c #DF751F",
"^. c #DB7320",
"/. c #CF732D",
"(. c #879B19",
"). c #7AA212",
"_. c #D66F20",
"`. c #CF6C22",
"'. c #C46D2E",
"]. c #809417",
"[. c #CD6920",
"{. c #99841C",
"}. c #CB661E",
"|. c #C26627",
" X c #768D14",
".X c #C4631F",
"XX c #7C8617",
"oX c #A56D27",
"OX c #C1601E",
"+X c #D2542A",
"@X c #C25E1D",
"#X c #8F7619",
"$X c #B56025",
"%X c #BD5C1E",
"&X c #767F13",
"*X c #B25B1E",
"=X c #B8581D",
"-X c #6B8110",
";X c #98671D",
":X c #A5601C",
">X c #C24E27",
",X c #B3551E",
"<X c #836E16",
"1X c #8C6918",
"2X c #AA571E",
"3X c #AE511D",
"4X c #5B7D0D",
"5X c #915E1A",
"6X c #846517",
"7X c #99581B",
"8X c #AB4E1E",
"9X c #A1531D",
"0X c #94591B",
"qX c #BA4324",
"wX c #9D501D",
"eX c #56770C",
"rX c #A5491E",
"tX c #8E551C",
"yX c #646A15",
"uX c #A54120",
"iX c #9F441E",
"pX c #B03A23",
"aX c #96481B",
"sX c #8B4C1E",
"dX c #983F1F",
"fX c #82471E",
"gX c #575F12",
"hX c #466509",
"jX c #923A1D",
"kX c #794620",
"lX c #5F5417",
"zX c #9E3120",
"xX c #694A18",
"cX c #923218",
"vX c #84371F",
"bX c #534D16",
"nX c #8D2918",
"mX c #43510A",
"MX c #76321D",
"NX c #643A13",
"BX c #563A12",
"VX c #41430C",
"CX c #5E2A1A",
"ZX c #722018",
"AX c #542E10",
"SX c #37390C",
"DX c #4F291F",
"FX c #5E2211",
"GX c #552319",
"HX c #49251D",
"JX c #3A2E12",
"KX c #5A1812",
"LX c #4A1D16",
"PX c #431D17",
"IX c #3A1E14",
"UX c #361713",
/* pixels */
"                                                                                                                        ",
"                                                                                                                        ",
"                                                                                                                        ",
"                                                      o ; o - +                                                         ",
"                                                    . 1 n e b &                                                         ",
"                                                    4 G { @.! , 5 > = O                                                 ",
"                                                  9 k *.-X&X .L T c w 7 4                                               ",
"                                                # V ..6X7X9X2X2X:XX. .{ k &                                             ",
"                                              - n X.9X3X,X=X[..X.X=X7X&XR V &                                           ",
"                                        : i i F 1X2X=X.X/.[.Z.!.`._.%X7X&X*.7                                           ",
"                                        x $.O.#X*X'.}.~.U.Q.J.Y.T.~._.@X7X&Xy o X                                       ",
"                                        i z.%.2X|.L.~.Y.Q.U.U.Q.N.T.Q.Y.OX;XY p O                                       ",
"                                    o * e W.:X%XOX!.Y.U.K.I.U.Y.Y.T.K.K.L.*X{.L %                                       ",
"                                    o i Y #X=X|./.Y.m.C.A.C.D.J.m.K.I.J.K.`.:X%.w                                       ",
"                                      e W.:X%X/.S.A.C.A.C.x.M.C.j.B.B.K.J.U.%X#XA @                                     ",
"                                    o v {.'.'._.U.C.M.C.M.b.M.s.d.v.m.H.K.T._.:X| 6                                     ",
"                                  ; p E ;X|.`.U.H.C.s.s.g.9.r.g.l.n.v.j.S.Z.!.$XoXN o                                   ",
"                                  y R &.$X/._.Z.m.s.h.g.1.7.1.f.x.n.V.v.A.Z.I./.;XE >                                   ",
"                                & G *.#X$XR.H.A.v.9.1.u.y.8.i.9.t.x.s.l.B.c.S.}.7X].x .                                 ",
"                                9 { *.1X=X!.c.C.v.l.i.3.5.0.e.8.y.a.g.r.v.v.S.^.2XXXJ %                                 ",
"                                ; Q  X7X}.L.C.V.B.d.f.t.>.4.4.0.0.3.r.d.l.A.U.L.|.#XO.q 2 +                             ",
"                              X h +. X2X[.T.D.V.M.1.:.,.0.5.8.8.6.8.d.l.b.V.K.~.%X;XW.! M %                             ",
"                                y *.XX2X`.H.V.b.j.e.>.4.k.2.e.y.6.>.t.k.h.V.K.~.OXsXXXz.g                               ",
"                              * x @.#X3X`.A.M.v.e.e.>.4.0.4.2.5.2.2.7.i.d.j.H.J.}.jXyXF.f                               ",
"                              i z.W.<X,X`.H.D.C.p.e.;.>.0.2.2.;.>.2.t.f.v.d.D.J.}.dX-.P.G #                             ",
"                              2 B XX6X=X^.K.A.v.y.0.5.e.y.<.4.>.2.q.y.p.g.v.H.U.`.rXBX(.R =                             ",
"                            .   a &X5X|.^.D.V.r.3.,.5.6.2.:.g.6.2.g.p.8.t.B.I.K.E.rXGXXX@.c .                           ",
"                            2 g C ].5X|.R.v.V.B.i.<.5.0.0.1.8.2.4.e.a.:.q.V.H.Y.[.rXLXyX).c                             ",
"                            2 ) z.W.tX%X~.B.V.b.w.,.6.6.i.;.2.8.4.5.e.i.e.a.v.G..XrXLXlXW >                             ",
"                          o : ) z.(.5X@XQ.C.V.l.m.,.4.<.1.,.0.4.6.h.e.n.n.j.m.G.|.rXLXlXY *                             ",
"                            : ) $.W.5X@XT.C.M.w.h.0.6.4.;.:.q.f.f.e.5.y.C.j.B.J.`.rXLXlX[ q                             ",
"                            + g $.P.1X%XU.H.B.h.7.2.p.t.<.;.,.8.p.8.2.t.h.v.A.Q.[.iXLXbXW.J *                           ",
"                              % J P.<X,X_.Y.m.g.i.8.f.y.4.<.>.>.p.n.r.f.h.b.B.T.}.dXPXVXQ w o                           ",
"                              . f P.<X,X!.J.m.M.k.q.e.t.>.4.6.2.g.l.g.t.k.V.D.T.OXvXIXbXj                               ",
"                                s  X=.3X`.U.C.M.h.t.3.t.2.6.4.,.r.1.q.p.k.V.H.U.'.vXIXgX0                               ",
"                              + S eX&XwXOX^.J.M.i.t.3.l.0.2.5.w.9.3.1.w.l.A.K./.,XnXIXhXs                               ",
"                                t +.].0X,X`.T.D.n.k.q.e.0.2.a.f.,.,.7.i.n.I.~./.8XnXAX] 8                               ",
"                              X 4 [ P.1X8XE.I.D.M.n.k.q.t.3.t.t.3.3.f.a.m.N.^.%X9XcXMX^ >                               ",
"                                i z.P.#X8X|.!.A.A.n.k.y.y.3.7.:.l.k.k.v.D.I.!.=XaXnXjX4Xu                               ",
"                              . M } 0XxXwX=X_.S.D.V.b.f.y.a.f.e.a.i.v.c.K.~._.8X6X5XaXP 1                               ",
"                              + b l o.CXfX3X}.I.H.A.M.h.x.b.x.b.k.d.A.S.U.}.%XaXlXsXaXm                                 ",
"                              . + < ' CXGXrXOXE.!.Y.D.m.l.M.M.A.m.c.I.~.~.OX8XvXDXcX-.t                                 ",
"                                  $ H jXPXvX,X%X}.^.I.c.u.B.m.H.H.K.U.~.!.%XdXCXZXcX..5                                 ",
"                                    d >XLXGXiX.X|._.Q.S.S.H.J.T.Q.T.^.^./.8XMXPXnXsXI :                                 ",
"                                    < ~ vXPXMX8XOX}.Y.J.^.!.T.~.U.I.R.OX,XjXKXZXcXD > .                                 ",
"                                    X z >XCXGXjX8X%XE.R._.~.T.Y.!.E.'.3XdXzXKXZXxXm                                     ",
"                                      < / ZXGXpXuX3X=X%XOX_.!.`.}.%X8XiXzXpXNXVX#.j                                     ",
"                                      O Z kXAX>XpXuX3X3X,X%X=X,X3XrXdXzXpX>XlXhX_ 1                                     ",
"                                        - S mXrX+XqXuXdXiX8XiXrXdXvXzXqX+XuXgX_ j O                                     ",
"                                        X 8 ] NXqXqXZXGXMXvXvXMXCXPXKXpXuXtX( r O                                       ",
"                                          & P hXBXFXUXIXUXUXIXUXUXIXUXAX=.&.a                                           ",
"                                            8 P gXVXJXDXDXPXDXDXHXHXHXxX%.C @                                           ",
"                                              > m #.yXxXDXHXIXJXSXSXkX` v 2                                             ",
"                                              o = G (.;XsXkXmXmXhX#.Z 6 X                                               ",
"                                                  e U v K ( =.eX4Xj #                                                   ",
"                                                  % 2   # 3 r V n &                                                     ",
"                                                              O o                                                       ",
"                                                                                                                        ",
"                                                                                                                        ",
"                                                                                                                        "
};
