/* XPM */
static char *c57c2419c89541eeba4d5a993163531cjC6e0xLhUoLNwm3T[] = {
/* columns rows colors chars-per-pixel */
"60 60 256 2 ",
"   c #47704C",
".  c #24402F",
"X  c #2F6333",
"o  c #B8A420",
"O  c #B09E22",
"+  c #327330",
"@  c #337332",
"#  c #B0961A",
"$  c #9E8A27",
"%  c #C8AB18",
"&  c #2E6A32",
"*  c #BFA115",
"=  c #327433",
"-  c #388434",
";  c #337930",
":  c #C4A917",
">  c #CAAC15",
",  c #398A34",
"<  c #C5AC1A",
"1  c #BD9F15",
"2  c #BC9E12",
"3  c #307532",
"4  c #C3A514",
"5  c #3B8B34",
"6  c #CCB217",
"7  c #3A8E35",
"8  c #45A438",
"9  c #43A038",
"0  c #3D9234",
"q  c #409C35",
"w  c #43A137",
"e  c #47A739",
"r  c #49AA3A",
"t  c #3F9935",
"y  c #46A538",
"u  c None",
"i  c #3C9535",
"p  c #3F9B35",
"a  c #47A539",
"s  c #429F36",
"d  c #3E9736",
"f  c #3A9232",
"g  c #378C32",
"h  c #328134",
"j  c #2F7D34",
"k  c #2D7A32",
"l  c #3E9834",
"z  c #2E7D31",
"x  c #46A23A",
"c  c #3A8C34",
"v  c #439C37",
"b  c #D3B514",
"n  c #D1B618",
"m  c #D8BA16",
"M  c #D3BD23",
"N  c #47A53A",
"B  c #45A039",
"V  c #6D8E22",
"C  c #D0B112",
"Z  c #C9AA0F",
"A  c #648925",
"S  c #2B7733",
"D  c #E2C61B",
"F  c #EAD01E",
"G  c #F3D920",
"H  c #F8DF22",
"J  c #FCE323",
"K  c #F5DC21",
"L  c #F4DB21",
"P  c #E4C91C",
"I  c #E6CC1D",
"U  c #FBE222",
"Y  c #E9CE1E",
"T  c #EFD51F",
"R  c #E8CD1D",
"E  c #F7DE23",
"W  c #E7CB1A",
"Q  c #F6DD21",
"!  c #EED31E",
"~  c #DCBF19",
"^  c #ECD21E",
"/  c #EED41F",
"(  c #FAE122",
")  c #F2D81F",
"_  c #DEC31A",
"`  c #EFD61F",
"'  c #F1D71F",
"]  c #FCE423",
"[  c #D6B816",
"{  c #D9BD17",
"}  c #FAE22C",
"|  c #C7A914",
" . c #D2B313",
".. c #CAAA1D",
"X. c #D5B311",
"o. c #EDD53B",
"O. c #F7E03F",
"+. c #DEC117",
"@. c #BEA112",
"#. c #DCBC13",
"$. c #F3CF15",
"%. c #CBA612",
"&. c #D1AD12",
"*. c #C7A611",
"=. c #F6D114",
"-. c #F0C913",
";. c #D5B00F",
":. c #DCB811",
">. c #E4BF13",
",. c #F1CC14",
"<. c #FED914",
"1. c #FBD514",
"2. c #E7C213",
"3. c #ECC715",
"4. c #FFDA14",
"5. c #FDD714",
"6. c #D6AE16",
"7. c #ECC516",
"8. c #AE8616",
"9. c #B28A16",
"0. c #88591B",
"q. c #B99216",
"w. c #E9C513",
"e. c #7A4D1F",
"r. c #CCAE12",
"t. c #865220",
"y. c #845120",
"u. c #8E5622",
"i. c #824E1F",
"p. c #895220",
"a. c #8B5521",
"s. c #7C4A1E",
"d. c #976C17",
"f. c #9D6D1B",
"g. c #9A6A1C",
"h. c #96631D",
"j. c #9C7317",
"k. c #C2A11B",
"l. c #CDAC13",
"z. c #A87F18",
"x. c #8F6D25",
"c. c #D3B214",
"v. c #C6A815",
"b. c #8A601F",
"n. c #86672B",
"m. c #635A57",
"M. c #93641B",
"N. c #EBCF1C",
"B. c #7E6736",
"V. c #876127",
"C. c #E8CD1D",
"Z. c #E4C214",
"A. c #997620",
"S. c #F9D216",
"D. c #C5AB17",
"F. c #C3A614",
"G. c #98661D",
"H. c #657177",
"J. c #70533E",
"K. c #66727A",
"L. c #A8801B",
"P. c #6C6964",
"I. c #6C5944",
"U. c #6E604B",
"Y. c #745536",
"T. c #696559",
"R. c #765B2F",
"E. c #7A5D41",
"W. c #717269",
"Q. c #B99014",
"!. c #C09913",
"~. c #EFD82B",
"^. c #ECD63C",
"/. c #B08F16",
"(. c #6E411D",
"). c #6F411C",
"_. c #6F411B",
"`. c #8B6316",
"'. c #81611D",
"]. c #5D331B",
"[. c #5F371D",
"{. c #5F371C",
"}. c #A27E17",
"|. c #A37E1A",
" X c #A88517",
".X c #3D9132",
"XX c #358232",
"oX c #378631",
"OX c #3C8F33",
"+X c #429938",
"@X c #377C34",
"#X c #92711B",
"$X c #358836",
"%X c #317D36",
"&X c #398E32",
"*X c #337D30",
"=X c #838B25",
"-X c #BFA014",
";X c #368930",
":X c #337F35",
">X c #CBAA10",
",X c #B89E18",
"<X c #49A53B",
"1X c #3E9734",
"2X c #3E9635",
"3X c #BEA113",
"4X c #358333",
"5X c #C5A813",
"6X c #C8B41E",
"7X c #E1C51D",
"8X c #B89A1B",
"9X c #357A34",
"0X c #C5B224",
"qX c #C4B11B",
"wX c #BD9B16",
"eX c #C5A815",
"rX c #46A23A",
"tX c #BE9E13",
"yX c #CDAD12",
"uX c #C4A513",
"iX c #C1A415",
"pX c #CFAF13",
"aX c #C7A810",
"sX c #CBAB10",
"dX c #D6BB1E",
"fX c #90901E",
"gX c #C0A012",
"hX c #CCAF16",
"jX c #3E9536",
"kX c #3E9035",
"lX c #419335",
"zX c #358131",
"xX c #449E37",
"cX c #429B37",
"vX c #3B8A35",
"bX c #397D37",
"nX c #347932",
"mX c #3B8B35",
"MX c #429A38",
"NX c #2D6E2F",
"BX c #429A37",
"VX c #3B8A31",
"CX c #2F7434",
"ZX c #3B8C35",
"AX c #B09415",
"SX c #BD9F15",
"DX c #B9A01B",
"FX c #B39A1D",
"GX c #3B8935",
"HX c #BDAC1C",
"JX c #B0991B",
"KX c #316E31",
"LX c #AF9C22",
"PX c #B2AD2E",
"IX c #306C32",
"UX c #66633E",
/* pixels */
"                                                                                                                        ",
"                                                                                                                        ",
"                                                          @ KX                                                          ",
"                                                          vXGX    .                                                     ",
"                                                X IX    UXcXMX  @ =                                                     ",
"                                                IXCXIX  IXxXBX. , -                                                     ",
"                                                  ZXGXNX9XrX<X@X+XOX                                                    ",
"                                                  mXjX, c a x vXrXoX                                                    ",
"                                                  zXx c 2Xy a 0 x +                                                     ",
"                                              UXUXIXB l 1Xt p q N @ nX+                                                 ",
"                                                & KXcXw f d q 8 xXkXBXX                                                 ",
"                                            X GX5 XX.Xe g s q w p y lXGXbX.                                             ",
"                                            . ZX8 p 7 8 u y t i 8 9 0 9 mX                                              ",
"                                              + BXs 8 t i y t u r q y v X                                               ",
"                                                VXl e w f e q t r w a VX                                                ",
"                                              . . , s r f r 8 e y 8 MX                                                  ",
"                                            X 3 5 *X&Xr w e e r 8 9 - ; KX                                              ",
"                                            . ; 0 w ;Xu q e e d g u 7 7 -                                               ",
"                                                KXBXt h h d i h z $X:X= IX                                              ",
"                                                  NX4Xh j j j k z %X&                                                   ",
"                                                    3 S j k k k j CX                                                    ",
"                                                    =XA V V V V A fX                                                    ",
"                                                  LX-XZ Z C C Z Z gX$                                                   ",
"                                                  <  .%.#.D D +.C 7X% o                                                 ",
"                                              PXFXdXP ~ ! F R G P F b :                                                 ",
"                                              M n b ) L D K L D G G b @.LX                                              ",
"                                              % C D ( ) _ H ( _ T H P | JX                                              ",
"                                              2 { T G F / ' ) o.Y T ' C.SX                                              ",
"                                              4 F G D K H W R } Q _ ) G 4                                               ",
"                                            O 6 L F D J J P I J U I R K hXDX                                            ",
"                                            # [ ^ ^ Y E L Y R Q K T ` I m 6 O                                           ",
"                                          PX: ~ D H G ^ Y E L R ! Q J I b n HX                                          ",
"                                          0XpXm F J H ~ T J J ! ~ ( J ` ~ | JX                                          ",
"                                          DXaXI ^ U ' D / J J / P ! J ^ ^ *.#                                           ",
"                                          AXaX) / ` F O.Y E H F H R T / Q c.#                                           ",
"                                          FXsXK T D ( } L Y F K J H D F ( [ AX                                          ",
"                                          DXr.G R I U U J D D J U J F P H m SX                                          ",
"                                          SX .W T ! G ] Q I W L J K ^.~.F m *                                           ",
"                                          % C P J E Y Q Y G G W L F E J I b %                                           ",
"                                          > X.I U ] ` _ W $.$.W { F J J Y b 2                                           ",
"                                          3Xl...F U N.#.=.<.4.1.Z._ H L ..k.D.o                                         ",
"                                        o hXz.e.k.F w.$.=.:.6.7.1.3.Y ~ 0.b.v.qX                                        ",
"                                        HXyXn.m.A.2.1.=.9.0.y.d.>.<.,.q.U.I./.o                                         ",
"                                        LXuXB.H.x.$.4.&.0.p.i.t.8.1.<.9.P.T.}.O                                         ",
"                                        PXtXV.J.b.,.5.8.p.p.s.a.M.2.<.z.J.Y.|.PX                                        ",
"                                          wXB.K.n.-.$.g.p.p.i.u.t.%.4.L.P.U. X                                          ",
"                                          eXx.m.x.=.-.h.u.p.y.u.y.q.1.9.I.R.wX                                          ",
"                                          5Xq.e.8.<.7.h.t.y.y.u.t.8.$.&.e.j.>                                           ",
"                                          < :.6.3.4.7.V.W.E.i.u.p.9.5.S.6.6.:                                           ",
"                                          > X.5.5.5.3.V.T.Y.i.u.i.Q.<.<.<.:.iX                                          ",
"                                          6Xr.-.=.,.-.G.y.i.t.u.s.!.<.1.=.l.eX                                          ",
"                                          LXF.:.-.>.3.g.u.i.t.u.y.%.$.3.2.v.JX                                          ",
"                                            SXsX>.,.2.f.u.y.t.u.t.&.$.>.&.1                                             ",
"                                            $ gX&.w.>.f.a.a.p.a.0.;.-.;.uXo                                             ",
"                                              * *.;.:.d.s.e.i.i.0.X.;.>X1                                               ",
"                                              UX8XiXpXj.(.)._.).`.yXtX,XO                                               ",
"                                                  UXFX#X{.[.[.].'.# UX                                                  ",
"                                                                                                                        ",
"                                                                                                                        ",
"                                                                                                                        "
};
