/* XPM */
static char *e127614b70574ec1aa5c3c1914e05f55cHQwsEvEc2x2Mxed[] = {
/* columns rows colors chars-per-pixel */
"60 60 256 2 ",
"   c #47704C",
".  c #C6B4CD",
"X  c #AD9FB6",
"o  c #566D5F",
"O  c #6F7570",
"+  c #516857",
"@  c #61736B",
"#  c #42634C",
"$  c #375F40",
"%  c #3B5C45",
"&  c #426549",
"*  c #355C40",
"=  c #7F8888",
"-  c #758380",
";  c #748279",
":  c #546E5D",
">  c #42614C",
",  c #41624A",
"<  c #556F5E",
"1  c #4E6954",
"2  c #42684A",
"3  c #63766A",
"4  c #47704F",
"5  c #385B44",
"6  c #416B4C",
"7  c #365E42",
"8  c #426F48",
"9  c #3E6E44",
"0  c None",
"q  c #38763D",
"w  c #3A7A3F",
"e  c #3A7E3E",
"r  c #35663E",
"t  c #396842",
"y  c #448C45",
"u  c #4F984D",
"i  c #469046",
"p  c #37773C",
"a  c #3C7C3F",
"s  c #56A053",
"d  c #478848",
"f  c #36783C",
"g  c #35763B",
"h  c #408744",
"j  c #3D823F",
"k  c #3E8441",
"l  c #499048",
"z  c #468E45",
"x  c #3C813F",
"c  c #397D3E",
"v  c #3A7F3F",
"b  c #37793B",
"n  c #4B934B",
"m  c #397B3D",
"M  c #408642",
"N  c #418843",
"B  c #438B45",
"V  c #317038",
"C  c #34743A",
"Z  c #397C3F",
"A  c #4D974A",
"S  c #4D964D",
"D  c #3A6F41",
"F  c #35663E",
"G  c #519B4E",
"H  c #57A250",
"J  c #4C9549",
"K  c #539D4F",
"L  c #4A9349",
"P  c #4C9648",
"I  c #4F974F",
"U  c #5FAC4E",
"Y  c #549F4E",
"T  c #448645",
"R  c #4B9449",
"E  c #529A4E",
"W  c #549E51",
"Q  c #4D974E",
"!  c #39703F",
"~  c #31633A",
"^  c #407C45",
"/  c #3D7941",
"(  c #2E6A35",
")  c #3B773F",
"_  c #2F6137",
"`  c #336D39",
"'  c #38723E",
"]  c #407D42",
"[  c #37753D",
"{  c #539C51",
"}  c #5DA951",
"|  c #5CA753",
" . c #58A353",
".. c #59A453",
"X. c #5EAA51",
"o. c #57A34D",
"O. c #60AC53",
"+. c #39783E",
"@. c #3A7C3F",
"#. c #61AE50",
"$. c #66B44D",
"%. c #68B74E",
"&. c #6BBA4F",
"*. c #68B84D",
"=. c #5BA84C",
"-. c #6CBC50",
";. c #6EBE4E",
":. c #65B352",
">. c #61AD53",
",. c #488F49",
"<. c #4E954F",
"1. c #54A14D",
"2. c #5CA851",
"3. c #65B34F",
"4. c #408245",
"5. c #69B850",
"6. c #6FBF4F",
"7. c #70C04E",
"8. c #70C04D",
"9. c #6BBA4D",
"0. c #6FBF4E",
"q. c #70C14D",
"w. c #70C04F",
"e. c #6FBF4D",
"r. c #6CBB4E",
"t. c #6DBD4E",
"y. c #6EBE4F",
"u. c #6DBC4D",
"i. c #6AB94E",
"p. c #66B64F",
"a. c #6EBE4D",
"s. c #66B54B",
"d. c #67B550",
"f. c #6AB851",
"g. c #67B64C",
"h. c #65B24F",
"j. c #6CBB4D",
"k. c #70C14C",
"l. c #6DBE4E",
"z. c #5CAB4A",
"x. c #6ABC4F",
"c. c #65B54D",
"v. c #67B54C",
"b. c #63B052",
"n. c #5BA650",
"m. c #74C24E",
"M. c #71BE4E",
"N. c #529D4B",
"B. c #5AA749",
"V. c #56A246",
"C. c #6ABA50",
"Z. c #61B051",
"A. c #58A44B",
"S. c #63B452",
"D. c #57A24B",
"F. c #6AB94D",
"G. c #63B44B",
"H. c #428941",
"J. c #57A154",
"K. c #5FAA55",
"L. c #559F51",
"P. c #5DAB52",
"I. c #63B14E",
"U. c #65B44C",
"Y. c #65B259",
"T. c #6BB954",
"R. c #56A34E",
"E. c #57A450",
"W. c #60AF4D",
"Q. c #60AD4B",
"!. c #51994E",
"~. c #438944",
"^. c #37703E",
"/. c #4F9B47",
"(. c #5BA94B",
"). c #5BA653",
"_. c #488947",
"`. c #38743E",
"'. c #448843",
"]. c #428043",
"[. c #36723C",
"{. c #35613F",
"}. c #2A6333",
"|. c #337139",
" X c #35673C",
".X c #316A37",
"XX c #2F6937",
"oX c #3C6143",
"OX c #3D6345",
"+X c #2E5E38",
"@X c #2C6634",
"#X c #37703C",
"$X c #306239",
"%X c #265730",
"&X c #325E3C",
"*X c #285932",
"=X c #2E6835",
"-X c #416648",
";X c #316C37",
":X c #488E49",
">X c #519850",
",X c #427A48",
"<X c #3E7C42",
"1X c #357339",
"2X c #36733C",
"3X c #36703C",
"4X c #376C3E",
"5X c #346E3A",
"6X c #3E7144",
"7X c #356C3C",
"8X c #50954E",
"9X c #50954C",
"0X c #2E6636",
"qX c #37673F",
"wX c #35603C",
"eX c #35723B",
"rX c #326B39",
"tX c #35703B",
"yX c #306639",
"uX c #376D3E",
"iX c #3C743F",
"pX c #335F3B",
"aX c #406549",
"sX c #2F5F38",
"dX c #3B6644",
"fX c #325F3C",
"gX c #33603D",
"hX c #416D48",
"jX c #3E6F45",
"kX c #3B6E43",
"lX c #396442",
"zX c #376B3F",
"xX c #35663D",
"cX c #356041",
"vX c #386140",
"bX c #3F6249",
"nX c #43654C",
"mX c #417047",
"MX c #3F6448",
"NX c #3C6345",
"BX c #446A4B",
"VX c #486C4F",
"CX c #3C6646",
"ZX c #416A4B",
"AX c #3B6046",
"SX c #2E5839",
"DX c #436A4A",
"FX c #4D7947",
"GX c #607D67",
"HX c #406E42",
"JX c #65746A",
"KX c #516A59",
"LX c #576C5E",
"PX c #59735D",
"IX c #54745C",
"UX c #D3B9DC",
/* pixels */
"                                                                                                                        ",
"                                                                                                                        ",
"                                                                                                                        ",
"                                                                                                                        ",
"                                                                                                                        ",
"                                                                                                                        ",
"                                                                                                                        ",
"                                                                                                                        ",
"                                                                                                                        ",
"                                                                                                                        ",
"                                                                                                                        ",
"                                                                                                                        ",
"                                                                                                                        ",
"                                                                                                                        ",
"                                                                                                                        ",
"                                                                                                                        ",
"                                                                                                                        ",
"                O                                                                                                       ",
"          ; 1 2 3 < o X : > IXUXIXGXKX                                                                                  ",
"        . aXpXsXdXfXgXlXvXr t 4 6XqXwXPX                                                                                ",
"        o sX( V C g f a p e 4.,X<XC tXDX                                                                                ",
"        # uXv v c h y i i y S >X:XZ 0 9                                                                                 ",
"        % _ f j e y u s U Y K s G x q 8                                                                                 ",
"        @ ~ g k J G H O.-.p.b.} { M w 4                                                                                 ",
"        + ! h n K 2.h.0.q.7.0.5.W B [ 2                                                                                 ",
"        @ D M L.P.c.U.9.e.k.8.-.H Q @.F                                                                                 ",
"        * ` N 1.#.g.I.2.3.*.;.-.$.Y ,.D                                                                                 ",
"        # ' L $.$.=.o. .| } :.S.;.#.<.kX                                                                                ",
"        & ] G %.&.#.O.>.:.Y.K.A.j.d.8XmX                                                                                ",
"        FX_.).u.t.r.9.e.6.T.=.z.%.#.9XhX=                                                                               ",
"        HX'.=.v.h.7.8.8.8.7.9.u.i.X.n jX-                                                                               ",
"        LX].o.} n.*.i.7.q.6.6.7.y.U T mX                                                                                ",
"        KX/ W  .3.s.s.q.q.r.5.6.0.B.a xX                                                                                ",
"        HXd s } l.7.a.M.m.f.Z.C.r.N.e zX                                                                                ",
"        SXq u | t.w.t.d.p.5.z.V.%.H w ZX.                                                                               ",
"        o ^ B ..&.6.t.5.5.7.x.c.*.Y +.CX                                                                                ",
"        , ) L J.X.u.y.6.w.9.x.G.U R eXZX.                                                                               ",
"        5 ^.~.!...f.q.w.w.0.0.F.R.B 0XAX                                                                                ",
"        6 `.b n S (.e.q.a.g.Q.W.E.k }.{.                                                                                ",
"        7 [.f l N /.F.j.U J P A A f |. X                                                                                ",
"        $ 2Xg j v H.A.D.E I l z N V @X+X                                                                                ",
"        $ 3Xb c m g z l k j x y 1X=X=X&X.                                                                               ",
"        X 4X5X7XrXyXiX0 ;X.XXX#X$X%X*XcX                                                                                ",
"          VXBX& CXnXbXvX-XoXOXAXDXMXNX+                                                                                 ",
"            UX  . . UXJXJXLXPX  . X                                                                                     ",
"                                                                                                                        ",
"                                                                                                                        ",
"                                                                                                                        ",
"                                                                                                                        ",
"                                                                                                                        ",
"                                                                                                                        ",
"                                                                                                                        ",
"                                                                                                                        ",
"                                                                                                                        ",
"                                                                                                                        ",
"                                                                                                                        ",
"                                                                                                                        ",
"                                                                                                                        ",
"                                                                                                                        ",
"                                                                                                                        "
};
