/* XPM */
static char *_02ed95e0e454f40d17a643ee5995e26pjXkaqIcrRlEpXnh[] = {
/* columns rows colors chars-per-pixel */
"60 60 256 2 ",
"   c #47704C",
".  c #838917",
"X  c #D6CC30",
"o  c #B3B021",
"O  c #C9C329",
"+  c #C8C224",
"@  c #BBB723",
"#  c #B8B421",
"$  c #BBB81E",
"%  c #9A9C0D",
"&  c #D9D02F",
"*  c #A2A210",
"=  c #D7CC2F",
"-  c #C3BE22",
";  c #E7DB37",
":  c #EEE23B",
">  c #E5DA35",
",  c #D7CE2E",
"<  c #E1D734",
"1  c #F2E43C",
"2  c #DED432",
"3  c #F7E740",
"4  c #EADE39",
"5  c #FCEC42",
"6  c #FFEE43",
"7  c #FFED43",
"8  c #FAE940",
"9  c #FFEF44",
"0  c #FDED42",
"q  c #F4E343",
"w  c #F9DE40",
"e  c #FBE341",
"r  c None",
"t  c #F0E043",
"y  c #E9D942",
"u  c #E3D541",
"i  c #E0D241",
"p  c #FFF144",
"a  c #B8AD38",
"s  c #DBCD40",
"d  c #C8BC3C",
"f  c #8B8330",
"g  c #EBB83B",
"h  c #AA9F39",
"j  c #CFC23F",
"k  c #AEA43D",
"l  c #C6BA3D",
"z  c #C3B73D",
"x  c #65602A",
"c  c #837B33",
"v  c #6B652D",
"b  c #7D752F",
"n  c #433D21",
"m  c #77722F",
"M  c #918732",
"N  c #A9A12E",
"B  c #83792F",
"V  c #857B34",
"C  c #304342",
"Z  c #655F27",
"A  c #F6D53F",
"S  c #F4CB3D",
"D  c #F3D03D",
"F  c #F6D93F",
"G  c #8E872D",
"H  c #8D8031",
"J  c #DCCE41",
"K  c #ABA139",
"L  c #372216",
"P  c #BBB03A",
"I  c #2B1C15",
"U  c #545128",
"Y  c #623514",
"T  c #6B662B",
"R  c #C3BC2A",
"E  c #174F66",
"W  c #195A70",
"Q  c #D99D34",
"!  c #612E1D",
"~  c #223335",
"^  c #BFB540",
"/  c #606331",
"(  c #FFF044",
")  c #9E9439",
"_  c #CDC629",
"`  c #AC9F38",
"'  c #969326",
"]  c #ABA527",
"[  c #7E772E",
"{  c #1F6784",
"}  c #1A6985",
"|  c #1D6C8B",
" . c #C7C22F",
".. c #CCC628",
"X. c #CEC629",
"o. c #4C5840",
"O. c #7E752C",
"+. c #13445C",
"@. c #184A5C",
"#. c #195169",
"$. c #0A2835",
"%. c #12465B",
"&. c #1B5E77",
"*. c #62602A",
"=. c #14536A",
"-. c #104356",
";. c #D3C640",
":. c #968D36",
">. c #E5C43F",
",. c #413D22",
"<. c #8A862A",
"1. c #938F28",
"2. c #C87934",
"3. c #DA9B38",
"4. c #34676B",
"5. c #B19738",
"6. c #524D25",
"7. c #656029",
"8. c #B9AE3E",
"9. c #1C6E8E",
"0. c #655D2B",
"q. c #777130",
"w. c #A49A3C",
"e. c #876625",
"r. c #DFBA3D",
"t. c #F1C63F",
"y. c #5B5623",
"u. c #D99438",
"i. c #A47E2C",
"p. c #A38333",
"a. c #922E24",
"s. c #DD8E36",
"d. c #1B566D",
"f. c #D4CA31",
"g. c #D3C930",
"h. c #3F2513",
"j. c #502E16",
"k. c #8D8530",
"l. c #A8A820",
"z. c #C4BE2B",
"x. c #FFFFD6",
"c. c #5A1A16",
"v. c #782216",
"b. c #B5B02A",
"n. c #3A2211",
"m. c #4F3918",
"M. c #874612",
"N. c #653610",
"B. c #591D16",
"V. c #A92718",
"C. c #782817",
"Z. c #8D2617",
"A. c #3D2013",
"S. c #7E4111",
"D. c #301D14",
"F. c #301B12",
"G. c #2F1913",
"H. c #633411",
"J. c #804412",
"K. c #6E3910",
"L. c #773F13",
"P. c #5E3211",
"I. c #7F4213",
"U. c #49250D",
"Y. c #582E0E",
"T. c #381F0F",
"R. c #442510",
"E. c #4F3114",
"W. c #7A732F",
"Q. c #9A9B1C",
"!. c #B4B122",
"~. c #DCD233",
"^. c #A1A01B",
"/. c #32190D",
"(. c #B89526",
"). c #8A881E",
"_. c #A29736",
"`. c #DBD132",
"'. c #898F1B",
"]. c #827B34",
"[. c #888134",
"{. c #2B2B1C",
"}. c #D6D037",
"|. c #B0AD21",
" X c #4C3618",
".X c #0B0A17",
"XX c #DFD338",
"oX c #09090B",
"OX c #162126",
"+X c #6F6C2E",
"@X c #9C9C1C",
"#X c #8A8429",
"$X c #CDC72F",
"%X c #CDC72D",
"&X c #C5C027",
"*X c #341C0F",
"=X c #B6B425",
"-X c #D5C83D",
";X c #B6AE33",
":X c #CCC42B",
">X c #CEC931",
",X c #D6CD31",
"<X c #D5CD30",
"1X c #E3D937",
"2X c #3D3C1A",
"3X c #C3BD2A",
"4X c #070709",
"5X c #020305",
"6X c #020204",
"7X c #070709",
"8X c #B3AD2D",
"9X c #BAB826",
"0X c #A6A22C",
"qX c #B1B024",
"wX c #9F9535",
"eX c #6D672B",
"rX c #767127",
"tX c #A3A522",
"yX c #040405",
"uX c #080709",
"iX c #9FA019",
"pX c #050506",
"aX c #0B0B0C",
"sX c #3E3F1C",
"dX c #0C0E0E",
"fX c #110D0C",
"gX c #110D0B",
"hX c #09080A",
"jX c #9C9D1B",
"kX c #898E19",
"lX c #514F20",
"zX c #A1A21C",
"xX c #979A1B",
"cX c #0B0910",
"vX c #0F0F19",
"bX c #110B13",
"nX c #A0A21C",
"mX c #95981A",
"MX c #8E9316",
"NX c #8D921B",
"BX c #879629",
"VX c #8F931A",
"CX c #15100F",
"ZX c #0E1116",
"AX c #78712C",
"SX c #79722C",
"DX c #5D582A",
"FX c #838A15",
"GX c #808A16",
"HX c #131218",
"JX c #161313",
"KX c #1B1B1D",
"LX c #121214",
"PX c #1C1E18",
"IX c #0D100D",
"UX c gray3",
/* pixels */
"                                                                                                                        ",
"                                                                                                                        ",
"                                                                                                                        ",
"                                                                                                                        ",
"                                                                                                                        ",
"                                                                                                                        ",
"                                                                                                                        ",
"                                                                                                                        ",
"                                        BXVXkX. Q.jXkXtXnXNXVX0XmX. nXjX. . VXGX                                        ",
"                                        NXo @ o = 2 @ < < # O 4 O # 2 , # # @ mX                                        ",
"                                        MXX 0 0 6 6 0 6 6 5 7 6 6 5 6 6 5 0 ; ^.                                        ",
"                                        FX,X5 < 3 6 6 6 7 7 7 7 6 6 7 8 X.> 1XzX                                        ",
"                                        PX>X: * & p y i 9 7 7 6 u i p > % + <XFX                                        ",
"                                          $X> * = s d a d r q a a a u & * & f.BX                                        ",
"                                          $X3 _ ; f H [ c y 3 f B B f u 2 3 g.BX                                        ",
"                                        UX}.1 < 3 m JXbXeXy q AXJXcXAXq 9 6 ,XGX                                        ",
"                                        IX>X< + -XlX  UXLXK ^ !     DXl 6 7 <XFX                                        ",
"                                          9X1 1 ;XLXLXE +.W.O.~ E C IXN 5 5 3XGX                                        ",
"                                          nX4 8 _.  @.} | o.U { } W   M t 3 9XIX                                        ",
"                                          mX2 3 #X  #.$.-.OXdX=.$.E   SXr 1 qX                                          ",
"                                          xXX 3 k.  #.%.&./ *.&.%.W   ].t r iX                                          ",
"                                          '.`.7 5.! C | { ^ XX4.9.d.a.p.3 r zX                                          ",
"                                          xX1XA Q 3.2.ZXZX;X-XsXZXa.s.Q S 1 =X                                          ",
"                                          zX1XD A S u.IXU k d x LX2.t.A S r !.                                          ",
"                                          NX:XD A >.i.y.l i i d / e.r.D S = iX                                          ",
"                                          GX&XD F a s t 0 6 5 7 q i h y A X MX                                          ",
"                                          GX%Xe F s h t 9 6 6 ( q k j e w ~.NX                                          ",
"                                          FX%X7 7 6 ;.:.z u y z ) j 6 7 6 XXxX                                          ",
"                                          GX&X1 2 5 6 s x x 7.6.z 9 7 6 6 X MX                                          ",
"                                          HX)., $ 5 6 q M v T Z y 6 8 & 1 ] 2X                                          ",
"                                          bXrX> 2 4 5 5 ` V H G q 9 2 * , N vX                                          ",
"                                          vXtX3 = * < e g g g g w 9 = % , R JXPX                                        ",
"                                        PXvXqX1 $ % , 7 w e e w 5 6 ; - 1 R JXLX                                        ",
"                                        HX.X=X: - % > 6 7 7 7 6 7 7 5 , :  .cXvX                                        ",
"                                        PXCX#X: ; ..8 6 7 7 7 6 7 7 8 - 4 N {.LX                                        ",
"                                          v 1.; 8 4 5 8 4 5 5 4 3 6 1 4 : ' [.                                          ",
"                                          b <.o 3Xl.z.b.@X(.(.@X;X:X8X8X|.G wX                                          ",
"                                          SXAXlXGXx.'.{.ZXB.v.CX~ . BXBXsXrXwX                                          ",
"                                          SXAXgX*X*X/.F.D.B.c.G.F./.*X*XfXeXwX                                          ",
"                                          SXAXY R.T.Y.U.T.C.Z.T.R.P.T.R.E.W.wX                                          ",
"                                          SXAXY Y.U.K.P.U.Z.V.U.Y.K.U.Y.H.].wX                                          ",
"                                          0XK Y I.I.S.I.L.C.Z.L.I.S.I.J.H.[.8XHX                                        ",
"                                        HXP J n L n.N.P.D.A.G.G.P.N.h.L I P J DX                                        ",
"                                        C l j b   A.M.J.L     CXL.M.j.  DX8.s SX                                        ",
"                                        Z k c v   ZX X XJX    bXE.m.I   DXq.w.rX                                        ",
"                                        2XV m LX    T +X        eX+X    PX0.c lX                                        ",
"                                          sXn UX    fXOXUX      gXdXIX    ,.n PX                                        ",
"                                            IX      gXfXUX      gXfXUX    UXUX                                          ",
"                                                  UXhXhXIX    UXCXaXIX                                                  ",
"                                                  KXCXZXIX    UXZXCXKX                                                  ",
"                                                PXdX4XuXKX    IXpXyXuXKX                                                ",
"                                                cX4X6X7XKX    PXyX6X7XJX                                                ",
"                                                JX5X6X7XKX    PXyX6X5XZX                                                ",
"                                                LXdXpXaXPX    IXhXpXuXoX                                                ",
"                                                                                                                        ",
"                                                                                                                        ",
"                                                                                                                        ",
"                                                                                                                        ",
"                                                                                                                        ",
"                                                                                                                        "
};
