/* XPM */
static char *_c5f5021203d4445bdd7252ca4b596ed[] = {
/* columns rows colors chars-per-pixel */
"60 60 243 2 ",
"   c #632604",
".  c #652B04",
"X  c #662A0A",
"o  c #6C2D0C",
"O  c #672709",
"+  c #6C330D",
"@  c #6B3501",
"#  c #7B3C0A",
"$  c #753609",
"%  c #6C2D14",
"&  c #682713",
"*  c #6E3113",
"=  c #6F3118",
"-  c #733414",
";  c #753B14",
":  c #7B3C14",
">  c #7B3C1A",
",  c #76351A",
"<  c #732F16",
"1  c #7A3825",
"2  c #6F2D21",
"3  c #7D4109",
"4  c #7E431C",
"5  c #7C4214",
"6  c #7E4223",
"7  c #823C1B",
"8  c #823E0D",
"9  c #843C29",
"0  c #83440C",
"q  c #85490C",
"w  c #834415",
"e  c #854A12",
"r  c #8B4C14",
"t  c #83441B",
"y  c #8C4D1B",
"u  c #854918",
"i  c #914F18",
"p  c #8C5117",
"a  c #92541A",
"s  c #9B5B1E",
"d  c #935418",
"f  c #9E601E",
"g  c #A3671B",
"h  c #844423",
"j  c #8C4D24",
"k  c #8B4B2B",
"l  c #884728",
"z  c #944E2C",
"x  c #8D5328",
"c  c #935423",
"v  c #9C5D23",
"b  c #94542B",
"n  c #9C5D2B",
"m  c #965828",
"M  c #8B4A33",
"N  c #9B5B32",
"B  c #965635",
"V  c #964F35",
"C  c #A25E24",
"Z  c #A55B2D",
"A  c #AC5D3C",
"S  c #A75938",
"D  c #B05D35",
"F  c #9E6126",
"G  c #9E6539",
"H  c #A36325",
"J  c #A4642B",
"K  c #AC6C2D",
"L  c #A96829",
"P  c #B16D2C",
"I  c #AD712A",
"U  c #B5742C",
"Y  c #B7792D",
"T  c #A46532",
"R  c #AC6D33",
"E  c #A4643B",
"W  c #AC643C",
"Q  c #AC6C3C",
"!  c #A76635",
"~  c #B36A39",
"^  c #AE7236",
"/  c #B47434",
"(  c #BC7C35",
")  c #B5743B",
"_  c #BA743C",
"`  c #BB7C3C",
"'  c #B67937",
"]  c #C3753C",
"[  c #C57D3A",
"{  c #8B4A44",
"}  c #995546",
"|  c #9A5A51",
" . c #A35A46",
".. c #AB6C42",
"X. c #A76745",
"o. c #BB6C44",
"O. c #B66B48",
"+. c #AC7345",
"@. c #B37443",
"#. c #BD7343",
"$. c #BC7C43",
"%. c #B4764A",
"&. c #BA7B4C",
"*. c #B8774B",
"=. c #B46E54",
"-. c #BB7B52",
";. c #BB7456",
":. c #A96556",
">. c #C26D43",
",. c #C47544",
"<. c #C37A43",
"1. c #C4754A",
"2. c #C9764B",
"3. c #C47C4B",
"4. c #CA7C4C",
"5. c #CA7845",
"6. c #C37B54",
"7. c #C47957",
"8. c #D17E49",
"9. c #BD813C",
"0. c #BE8334",
"q. c #C28336",
"w. c #C3833C",
"e. c #CB8A3D",
"r. c #C7873A",
"t. c #D4983D",
"y. c #CE8A3F",
"u. c #BD8343",
"i. c #BC8353",
"p. c #C38343",
"a. c #C68B43",
"s. c #CC8C44",
"d. c #C5844B",
"f. c #CB844C",
"g. c #CB8C4B",
"h. c #C78847",
"j. c #D38C4C",
"k. c #D48848",
"l. c #CD9245",
"z. c #CE924B",
"x. c #C7924C",
"c. c #D49345",
"v. c #D4944C",
"b. c #D9964C",
"n. c #D59A4B",
"m. c #DB9B4D",
"M. c #DA9C45",
"N. c #C48454",
"B. c #CA8453",
"V. c #CC8C53",
"C. c #CC8C5C",
"Z. c #C6865A",
"A. c #D38C54",
"S. c #D38D5A",
"D. c #D88A55",
"F. c #CE9254",
"G. c #CE915C",
"H. c #CF9953",
"J. c #D49453",
"K. c #D99654",
"L. c #D59A52",
"P. c #DC9C53",
"I. c #D4935B",
"U. c #DA955B",
"Y. c #D69A5C",
"T. c #DC9B5B",
"R. c #E09E4D",
"E. c #E19E52",
"W. c #E19D5B",
"Q. c #E89A5B",
"!. c #DCA24D",
"~. c #DAA247",
"^. c #DEA152",
"/. c #DDA25B",
"(. c #D8A453",
"). c #E2A44D",
"_. c #E3AB4D",
"`. c #E3A454",
"'. c #E5AA54",
"]. c #EAAC55",
"[. c #E4A45C",
"{. c #E5AA5C",
"}. c #EAAB5C",
"|. c #E8A55C",
" X c #F0A55C",
".X c #EDB25B",
"XX c #EBB354",
"oX c #F3B75C",
"OX c #CC8D62",
"+X c #C48461",
"@X c #D18D62",
"#X c #CD9564",
"$X c #D49462",
"%X c #D89663",
"&X c #D79962",
"*X c #DD9D63",
"=X c #D89B6A",
"-X c #DD9E72",
";X c #E39E63",
":X c #E59D69",
">X c #DEA163",
",X c #DAA16A",
"<X c #E3A464",
"1X c #EAA663",
"2X c #E5AA64",
"3X c #EAAB63",
"4X c #E4A46A",
"5X c #E6AA6C",
"6X c #EBAC6B",
"7X c #E8A76F",
"8X c #F3A766",
"9X c #EDB263",
"0X c #EDB26B",
"qX c #F1B465",
"wX c #F4BB63",
"eX c #F2B56A",
"rX c #F5BA6B",
"tX c #FABC6C",
"yX c #F9BB66",
"uX c #E3A473",
"iX c #EAAB72",
"pX c #E8A875",
"aX c #EDB273",
"sX c #EEB17A",
"dX c #F2B572",
"fX c #F4BB72",
"gX c #FABD72",
"hX c #F6BB7B",
"jX c #F9BD7B",
"kX c #F0A770",
"lX c #FBC265",
"zX c #FDC36C",
"xX c #FFCA6C",
"cX c #F6C061",
"vX c #FDC373",
"bX c #FECB74",
"nX c #FCC37C",
"mX c #FECB7B",
"MX c #FFD07D",
"NX c #FBBC82",
"BX c #FFCB84",
"VX c #FEC888",
"CX c #FFD188",
/* pixels */
"#.~ ~ ) _ _ _ p.p.$.` ` ' / / ` 9.p.p.u.p.p.h.h.g.g.g.$.^ T F c c y w w 5 t b E N j t y c a a H s.v.T.A.) c c N k h h h ",
"A.S.S.I.U.U.J.v.g.g.g.g.z.J.T./.<XP.v.v.J.v.g.h.w.w.g.[.4X<X>X>XY.G.G.N.N.N.%.%.%.&.N.I.&X<X<X4XP.h.p.h.A.I.$XZ.+X+X+X+X",
"<.p.f.J.K.v.l.l.z./.9X9X{./.P.L.v.{.qXqX|.|.3X3X`.`.m.m.`.}.qXeXrXfXdXfXfXaXaX5X5X5XaXhXdX3XP.v.g.g.p._ R T n N c c b b ",
"iX;XU.T.T.P.m.`.^..XqX9X{.{.3X}.`.n.v.`.{.{.}.`.R.`.]..X.X].'.{.}.[.L.v.z.x.l.a.a.p.s.v.a.e.e.l.v.K.<X;XV.U.4X4XuX=X=X=X",
"C.C.V.U.6XrXtXwXlXwX.X'.!.n.n.l.l.c.n.P.L.P.{.`.`.`.m.).`.).!.^.L.g.v.' ` [.<X6X6XqXgXgX}.}.{.{.|.eX3XW.T.6X4X*X&XG.C.$X",
"j j y n / g.[.qXrXzXbXvX9X(.z.l.L.z.v.L.h.` p.s.s.{.eXtXtX}.`.`.|.[.<Xs.( ( U U U U ( w.r.c.b.m.P.s.s.J.h.( / / / R R / ",
"# w c m n a i a i K F.iXhXhXnXVXVXVXVXVXNXhXaX4X*XT.L.L.n.s.s.v.`.[.`.|.|.E.E.b.P.b.b.b.s.s.r.s.q.e.s.s.b.P.T.T.T.I.g.p.",
"&.I.uXuX:X%XB.#.R v r e e e r p y m m m N N N n F $.d.u.' 9.g.P.P.`.`.P.v.e.q.( [ r.r.s.K.1X|.W.[.L.L.v.s.q.( U U K K / ",
"aX4X4X4X6XT.J.K.J.T.T.I.) c w # + o o X X , B B b Q Q C.hXVXnXjXgXgXgXgXeX9X[.v.v.v.v.v.L.[.T.v.v.s.h.r.r.l.b.W.[.|.1X3X",
"' ( ( 9.e.e.c.b.m.P.3XdXhXiXY.N...G z k l h z OXpX@.T i.d.H d s f F K w.v./.2X3X6X6X6X2X*XU.*X>X4X4XiX6X6X6X<XW.K.s.w.r.",
"{.9X9X9XyXtXyX.X`.).`.}.9XqXrXrX0X0X4XF.d.$.Q u.V.^ H s s d f f F F s a i a v J ^ @.Q c w w u t j j b n J R ) w.r.v.{.}.",
"gXrX9X`.`.`.`.!.).).).).`.'.{.{.3X2X2X<X<X<X2XT.T./.2X/.3XgXfX3XJ.I.I.I.I.I.V.$.T T ! Q Q ! T T n c c c v R ` l./.qXtXqX",
"I.Y.<X4X6X{.3X3X}.}.`.`.`.^.P.L.J.h.` _ h.h.T.dXfX/././.[.}.3X{.P.T.T.T.J.T.2X2X6X1X6X6XaXdX0X6X0X0XgXfXgXgX9X[.{.`.^.^.",
"0 r v / / ^ K / w.g.T.[.[.T.v.g.h.V.I.U.*X*XF.Y.>X<X2X2X2X2X2X<X7X4X4X4X4X4X<X*X7X4X7X6XaXaXhXnXnXmXBXBXBXmX0X2X2X<X2X5X",
"^ H d d 0 e e y a y e 0 r r r i e 3 # $ @ 3 # # # 3 5 u j m c x h 4 > > - , > h h N X.X...%.%.+.G G +.+...G b b j N E E ",
"9X2X2X2X<X4XpXpXpXuX%XI.%X*X4X7X7XpXsXiX,XG.G.i.@.Q %.G.&.E b 4 ; ; : t h l h , - o X X     . + + + - - - , , , , , - - ",
"zXxXzXvXvX[.p.) ) $.3.3.d.d.d.<.V.J.Y.Y.Y.Y.<X6XhXnXVXCXCXCXVXVXhXdXdXaXiX4X4X-X=XOXZ.Z.&.%.*.%.%.*.*.*.*.&.&.&.N.Z.C.B.",
"]..X}.9XeX3XT.g.h.d.d.d.V.A.I.U.U.T.T.Y.L.J.z.a.a.a.s.l.l.c.n.m.`.{.^.^.{.J./ H J ! T J T T L / _ $.$._ ) ) / / K L K / ",
"j.J.J.J.V.d.$.$.V.V.V.S.V.d.$.) ) @.#.$.h.F.T./.[.[.{.`.`.n.n.!.!.!.!.!.P.`.P.c.c.v.L.^.[.3XeXgXgXgXvXvXgXvXvXgXeX3X[.P.",
"T Z J J C v J R R R K H H H H v v v s s s f H K Y q.r.l.n.m.`.qXzXzXqX{.{.3X3X3XqX9X9XrXvXqX{.`.`.`.`.`.!.`.`.^.^.`.`.`.",
"3.f.V.g.g.v.[.3XeXgXbXbXvXtXrXrXeX0X0XeXeXeX3X3X{.{.[.^.{.{.{.qX3XqX6X<XU.U.U.A.T.T.{.{.P.P.{.`.m.n.c.c.e.e.e.q.( ( q.w.",
"@XS.$XI.V.J.2X3X{.9XrXzXrX.X{.{.9XrXvXtXeX9X3X{.2X/.v.s.s.s.h.a.p.' ) $.Q b b W 3.*X4X*X2X>X*X4X>X/.<X6X0XhXnXjXnXjXjXhX",
"S B V N E @.3.V.U.Y.*X<X<X>X*X>X>X6XdX0X<XT.T.T.J.F.g.g.I.>X>X>XaXaXNX=XN h B M l l > + ; 4 4 6 j x N ..&.Z.#X$XOXZ.%.G ",
"t h j t : # # # 0 e r i i i r e q 3 0 p f H K ^ ' ` ` ` / R v p r q e e ; 4 h h h l l h 6 , * * X X . . . . . @ . . . . ",
"F.Y.Y.z.g.g.g.h.g.g.g.h.p.$.` / ^ K J F v s F H H J K / / ' u.h.h.u.` p.V.V.I.I.I.$X&XI.C.C.C.N.&.&.*.@.) ^ ! R ! T n m ",
"0X{.9XvXmXmXnX0X[.[.[.|.2X3X3X1X3X6X6X6X6X6X6X6X6X6X6X6X6X6X6XdX6X3X2X2X1X|.W.T.T.J.I.*X<X<X<X4XiX7XiXdXNXjX6X[.T.T.J.g.",
"u.x.H.H.p./ / ( ( w.s.v.E.`.`.E.[.P.v.g.s.h.h.g.J.J.U.*X;X<X4X4X2X2X3X3X{.|.{.{.3X|.|.3X3X3X{.[.5X<X<X6X0X3X9XgXtXvXvXvX",
"x.a.9.' a./.0XgXnXgX3X`.`.`.`.`.`.P.P.E.P.j.h.h.' / K L H H H H R / ( r.s.v.v.v.v.v.v.c.s.e.q.Y ' ^ / I L g g Y ^.'..X.X",
"vXvXmXmXmXMXvX'.`.`.^.^.`.[.[.[.|.[.|.3X6X3X2X2X3X2X<X*XJ.h._ R J J C C C C C H H L P / [ w.s.n.T.2X3X|.|.|.P.L.P.[.`.P.",
"/.{.9XeX9XqX9X'.}.}.2X3X3X2X2X4X2X2X<XT.;X<X4X4X6X4X4X7XiXiXiXiXpX7X4X:X:X:X:X4X4X4X2X4X6X6X6X4X*X&XY.&X*X4X4X7X7XiXiX7X",
"u p a s J I ' w.p.p.p.<.$.3.N.Z.C.$X$X$X$XG.C.N.-.&.%.+.+.%.-.i.C.#X=X-X-XuXuX,X4X,X=X#XZ.-.X.M 1 - - > k B B G X.+.%.%.",
"-.....Q Q / $._ ) ) ) Q Z b h 7 $ : 5 5 : $ $ $ $ $ $ $ $ $ ; : # 5 w w t j c c j u 5 ; - X & % % = , = = % X X       X ",
"N.OX$X%X4XNXVXNX*Xd.$XZ.b t > > t t t t y u y m J ! Q @.$.$.$.$.R T v c y w : $ $ $ ; > h k b N T Q %.%.+...E N b j t : ",
"m c c n J J v d i 0 r y y E -.OX=X*X&XI.F.V.J.U.>X>X<X4X4X2X2X2X<X<X<X>X%X&X&XC.OXOXOXC.C.C.I.U.;X;X<X<X<X<X<X<X*X&XI.V.",
"2XT.s.` P H L R ' h.J.T.2X2X|.[.(.^.^.`.}.rXrXqX3X3X2X2X2X2X3X2X[.[.[.2X2X6X6X2X<X<X2X3X3XeXtXtXwXyXzXbXgXeXeXeXqX3X2X2X",
"`.{.|.3X3X2X3X3X3X3X`.m.`.).'.oXwXwXwXwXwXlXvXvXtXeX2XP.v.s.r.r.a.s.s.l.l.n.[.{.{.`.{.}.'.).~.t.t.M.).].].).!.).`.^.P.P.",
"}.}.}.{.{.{.{.`.^.^.!..XlXlXxXxXzXwX.X.X'.'.`.m.e.w.q.( w.s.L.[.{.!.n.n.l.Y L g U q.^.wXyXlXlXoXoX].).).).`.`.`.`.`.{.{.",
"I Y 0.q.q.0.0.q.n.!.].lXxXcXXX!.m.m.^.^.m.^.`.[.[.[.|.2X|.|.}.}.9XvXvXgXnXmXfXL.a.l.m.`.'.].oXoXwXqX}.^.m.m.P.b.m.P.E.P.",
"(.(.(.(.(.{.9XrXbXbXxXbXbXbXbXbXmXjX0X2X2X2X2X<X6X4X6X3X2X|.{.3X2X<X<X2X2X2X0XeX3X3X3X[.P.v.s.r.0.w.p.p.w.q.q.( ( q.q.q.",
"CXCXCXCXCXCXBXBXmXnXnXnXfX/.u.' K L v d d d d a v J / $.p.p.p.p.9.` / ^ / ' 9.' p.h.g.F.J.I.U.T.2X2X6X6X6X6X6X4X2X2X2X2X",
",X#X,X=X#X#Xi.G x u 4 u 5 @ @ @ @ 3 0 e e e 0 # $ $ $ $ # # # 8 0 e r a a r e w # $ # 8 e i i a C ) <.h.f.V.V.*X*X>X7X7X",
"5 ; ; + X   X X   + 4 x m G +.u.Y.2X2X5XT.Y.iX*XG.d.@.@.N.$X%X%XY.T.*X*X*X*X%XI.V.N.N.d.d.d.$.$.` R K J s i r 0 w w e e ",
"X X O X % - , t B ! @.g.2XvXmXbXbXbXbXbXvXbXbX2XT.T.T.T.T.I.g.h.` ' ' ( w.r.s.K.P.T.T.T.U.U.T.W.P.|.gXdX3XJ.p._ R J c r ",
"E ..X.X...+.-.N.V.I.T.{.qX.X'._.XX_.XXcXxXxXwX^.n.m.L.L.T.T.L.P.[.3XeXeXqXqXqX}.}.`.^.P.[.1X|.W.`.E.3X3X3X|.T.T.<X4X4X>X",
"2X>X*X*XT.W.[.T.P.P.^.]..X).t.t.~._.~._._.~.~.t.M.m.n.b.P.^.E.P.`.3XqX3X{.`.P.v.e.e.e.q.r.e.e.r.s.w.p.w.p.T.T.I.V.V.V.V.",
"n.P.9XqX`.b.m.E.R.R.m.M.M.).oXzXxXxXlXoXoXoXoXoXoX].m.e.r.r.e.c.c.e.q.q.( U U ( e.c.m.c.r.r.e.s.q.[ ' / / h./ s J J L K ",
"m.P.`.}.`.m.m.m.m.m.m.m.`.].}..X.X.XlXlXxXxXXX_._.).).m.R.m.b.v.c.c.v.b.n.m.m.E.|.{.}.{.`.[.[.W.2X<XT.K.K.J.A.<XW.W.W.T.",
"v.n.b.c.v.b.b.b.b.n.m.b.c.v.b.c.c.c.t.t.M.~.].].].].`.m.b.b.m.m.m.b.P.m.b.b.E.}.`.b.v.j.s.j.j.j.g.g.p./ P L K P p.j.K.P.",
"P.b.K.P.L.v.v.v.v.b.v.b.b.b.b.b.b.v.b.^.`.{.}.'..X}.`.b.b.b.v.b.b.b.v.b.b.b.`.}.`.E.b.r.L H P K K / ' [ h.p.[ ( P I ( v.",
"B.V.S.I.U.*X*X*X*X*XU.U.T.T.*X*X*X*X<X<XY.F.L././.<X2X[.W.T.T.U.T.U.U.U.T.T.T.J.K.v.J.T.U.T.T.U.T.T.T.T.T.T.W.T./.n.v.v.",
"X % % = > k B B B M 1 > 6 l b B B z l > * X o + ; > t j N ..-.Z.OX@X@XZ.Z.C.$X%X%X*X*X>X*XU.T.*XT.T.T.K.K.K.K.J.L.L.L.L.",
"1 6 6 1 = % % & & = , , * X O       X = 1 l M k B k j t > ; ; - o o o o o o - > j N E W Q @.@.$.d.V.V.S.U.U.%X&X&X*X>X*X",
"&.#.*.6.-.O...W W S W N.%X*X;X*XV.B.B.B.6.*.*.6.3.,.#.#.#.#.o.W b j 7 > , < % % O & O O & & O O   .   o o o , 4 6 l x b ",
"p.;XkXU.f.A.S.4.B.A.f.h.j.W.|.j.A.A.D.A.3.#.,.4.k.k.k.D.D.D.f.<.B.N.6.;.=.=.:. .:. .} } } }  .=.X.E B B B l > - - * X   ",
"8XQ.j.<.] ,.<.<.4.D.:X1Xj./ / _ _ #.,.,.1.D.;X:X8X XQ. X8X8X8X8XW.U.A.3.1.6.7.7.7.6.6.6.6.*.B.%X4X4X*X:XpXpXsXpXpXuX%X$X",
"] ] ,.4.D.D.D.S.4.,.,.4.4.3.4.3.6.6.6.2.2.2.4.5.[ k.y.k.k.k.[ [ ] ] ] ,.1.1.2.2.1.1.1.1.3.,.,.#._ <.$._ ) #.<.3.3.f.d.d.",
"#.o.~ W D D S S A ..O.O.=.;.=.;.;.;.;.;.1.1.,.,.] ] ] ] 5.k.k.k.k.k.k.f.8.4.2.,.1.2.4.2.2.2.2.2.#.~ W W W W W W ..W W W ",
"W D W #.o.o.o.1.A 7 , 7 , , 1 1 h l z z S o.2.2.1.4.2.3.,.<.<.5.8.8.5.5.2.2.2.2.2.2.2.2.1.o.O.O.A S  . .B V M l h l M l ",
"#.f.D.U.D.f.4.A.1.Z z V l 9 9 < - > z ..o.o.o.o.o.o.o.O.o.1.1.1.2.2.2.2.2.1.1.,.>.o.~ A A A A  . .M 1 2 1 1 2 & & 2 1 1 ",
":XkXQ.5._ ] ,.] 2.4.7.7.7.;.;.=.=.=.O.O.W A A S S S S S A A ~ o.>.>.>.>.o.~ D D Z Z S A  .S V V 9 M { { { { { } } | :.:."
};
